<?xml version="1.0" encoding="UTF-8"?>
<svg id="Layer_2" data-name="Layer 2" xmlns="http://www.w3.org/2000/svg" viewBox="0 0 82.69 61.62">
  <defs>
    <style>
      .cls-1 {
        fill: #fff;
        fill-rule: evenodd;
      }

      .cls-2 {
        fill: #1e1d19;
      }
    </style>
  </defs>
  <g id="Layer_1-2" data-name="Layer 1">
    <path class="cls-1" d="M22.26,49.59c12.45,0,42.17,3.05,52.62-6.14,4.31-3.79,6.76-8.66,7.52-14.58.09-.72.11-2.44.3-2.95v-3.1c-.23-.58-.23-2.09-.33-2.81-.13-.9-.28-1.73-.49-2.6-1.92-7.96-7.4-13.11-15-15.64-1.57-.52-3.19-.92-4.9-1.19-.88-.14-1.77-.27-2.67-.36-.58-.06-2.43-.12-2.79-.23h-3.5c.49.61,1.73,1.05,2.88,3.73,1.08,2.53.83,3.94,1.24,5.24,3.23.51,5.37.85,7.79,2.43,1.93,1.26,3.56,3.04,4.57,5.64,2.01,5.15,1.57,12.57-1.2,16.77-2.78,4.21-7.54,5.69-14.16,6.28-4.16.37-15.52.22-20.28.2V11.04c-.71-.21-10.19-.11-11.58-.05v38.61Z"/>
    <path class="cls-1" d="M43.57,0H14.37C10.19,0,4.84.39,3.06,4.83c-1.36,3.39-1.13,9.37-1.03,13.34.1,4.03.8,8.08,4.72,9.66,3.5,1.41,9.14,1.22,13.18,1.13l.04-9.63h-7.79s-.03-10.65-.03-10.65h32.5s.04,5.64.04,5.64c.77-.08,9.92-2.26,10.2-2.43.22-3.04-.56-7.07-2.13-8.95-1.92-2.3-6.25-2.94-9.18-2.94Z"/>
    <path class="cls-1" d="M36.14,28.95l9.19.02v9.02c1.58.06,9.14.04,10.12-.37.33-.25.03-9.02,0-9.23-.62-6.55-3.48-8.54-9.86-8.98-1.54-.1-3.09-.08-4.64-.08s-3.31-.08-4.81.02v9.6Z"/>
    <path class="cls-1" d="M.89,36.35l-.89.19c0,4.8.51,10.4,5.08,12.11,3.83,1.43,10.78.95,14.88.95l-.05-9.3-9.69-.03v-5.8c-1.05.07-2.69.52-3.8.75-2.48.51-3.61.88-5.54,1.14Z"/>
    <path class="cls-2" d="M4.13,55.66H1.61v1.75h2.32v1.31H1.61v2.78H0v-7.15h4.13v1.31Z"/>
    <path class="cls-2" d="M5.95,55.59c-.27,0-.48-.08-.65-.24-.17-.16-.25-.35-.25-.58s.08-.43.25-.58c.17-.15.39-.22.65-.22s.49.07.66.22c.17.15.25.34.25.58s-.08.44-.25.59c-.17.15-.39.23-.66.23ZM6.73,61.5h-1.58v-5.11h1.58v5.11Z"/>
    <path class="cls-2" d="M12.99,61.5h-1.57v-2.84c0-.79-.28-1.19-.85-1.19-.27,0-.5.11-.67.31-.18.21-.26.48-.26.8v2.91h-1.58v-5.11h1.58v.81h.02c.38-.62.92-.93,1.64-.93,1.13,0,1.7.7,1.7,2.1v3.13Z"/>
    <path class="cls-2" d="M18.48,61.5h-1.49v-.73h-.02c-.34.57-.85.86-1.52.86-.5,0-.89-.14-1.17-.42-.28-.28-.43-.66-.43-1.12,0-.99.59-1.56,1.76-1.72l1.39-.18c0-.56-.3-.84-.91-.84s-1.19.18-1.73.54v-1.19c.22-.11.52-.21.9-.3.38-.09.73-.13,1.04-.13,1.46,0,2.18.73,2.18,2.18v3.05ZM17,59.43v-.34l-.93.12c-.51.07-.77.3-.77.69,0,.18.06.33.19.44.12.11.29.17.51.17.3,0,.54-.1.72-.31s.28-.46.28-.78Z"/>
    <path class="cls-2" d="M24.66,61.5h-1.57v-2.84c0-.79-.28-1.19-.85-1.19-.27,0-.5.11-.67.31-.18.21-.26.48-.26.8v2.91h-1.58v-5.11h1.58v.81h.02c.38-.62.92-.93,1.64-.93,1.13,0,1.7.7,1.7,2.1v3.13Z"/>
    <path class="cls-2" d="M29.78,61.31c-.36.21-.87.31-1.54.31-.78,0-1.42-.24-1.9-.71-.49-.47-.73-1.09-.73-1.84,0-.87.26-1.55.78-2.05.52-.5,1.22-.75,2.09-.75.6,0,1.04.08,1.31.24v1.34c-.33-.25-.7-.37-1.1-.37-.45,0-.81.13-1.07.4-.26.26-.4.63-.4,1.09s.13.81.38,1.06c.25.26.6.39,1.04.39.39,0,.78-.12,1.15-.37v1.27Z"/>
    <path class="cls-2" d="M31.61,55.59c-.27,0-.48-.08-.65-.24-.17-.16-.25-.35-.25-.58s.08-.43.25-.58c.17-.15.39-.22.65-.22s.49.07.66.22c.17.15.25.34.25.58s-.08.44-.25.59c-.17.15-.39.23-.66.23ZM32.39,61.5h-1.58v-5.11h1.58v5.11Z"/>
    <path class="cls-2" d="M37.96,61.5h-1.49v-.73h-.02c-.34.57-.85.86-1.52.86-.5,0-.89-.14-1.17-.42-.28-.28-.43-.66-.43-1.12,0-.99.59-1.56,1.76-1.72l1.39-.18c0-.56-.3-.84-.91-.84s-1.19.18-1.73.54v-1.19c.22-.11.52-.21.9-.3.38-.09.73-.13,1.04-.13,1.46,0,2.18.73,2.18,2.18v3.05ZM36.48,59.43v-.34l-.93.12c-.51.07-.77.3-.77.69,0,.18.06.33.19.44.12.11.29.17.51.17.3,0,.54-.1.72-.31s.28-.46.28-.78Z"/>
    <path class="cls-2" d="M40.78,61.5h-1.58v-7.56h1.58v7.56Z"/>
    <path class="cls-2" d="M44.75,61.23v-1.6c.29.24.6.42.94.55.34.12.68.18,1.03.18.2,0,.38-.02.53-.05.15-.04.28-.09.38-.15.1-.07.18-.14.23-.23s.07-.18.07-.29c0-.14-.04-.26-.12-.37-.08-.11-.19-.21-.33-.3-.14-.09-.3-.18-.49-.27-.19-.09-.39-.17-.61-.26-.56-.23-.97-.52-1.25-.85-.27-.33-.41-.74-.41-1.22,0-.37.07-.69.22-.96s.35-.49.61-.66.56-.3.9-.38c.34-.08.7-.12,1.08-.12s.7.02.99.07.55.11.8.21v1.49c-.12-.08-.25-.16-.39-.22-.14-.06-.29-.12-.44-.16-.15-.04-.3-.07-.45-.09s-.29-.03-.42-.03c-.18,0-.35.02-.5.05-.15.04-.28.08-.38.15-.1.06-.18.14-.24.23s-.08.19-.08.3c0,.12.03.23.09.32.06.09.15.18.27.27s.26.17.42.25c.17.08.35.17.56.25.29.12.54.25.77.38.23.13.42.29.59.46.16.17.29.36.37.58s.13.47.13.76c0,.4-.08.73-.23,1-.15.27-.36.49-.62.66s-.56.29-.9.36-.71.11-1.09.11-.77-.03-1.12-.1c-.35-.07-.66-.17-.92-.3Z"/>
    <path class="cls-2" d="M55.24,59.39h-3.33c.05.74.52,1.11,1.4,1.11.56,0,1.06-.13,1.48-.4v1.14c-.47.25-1.09.38-1.84.38-.82,0-1.46-.23-1.92-.69-.46-.46-.68-1.09-.68-1.91s.25-1.52.74-2.01c.49-.5,1.1-.74,1.81-.74s1.32.22,1.73.66.61,1.04.61,1.8v.66ZM53.78,58.43c0-.73-.3-1.1-.89-1.1-.25,0-.47.11-.66.31-.18.21-.3.47-.34.78h1.88Z"/>
    <path class="cls-2" d="M59.51,57.81c-.19-.1-.41-.16-.66-.16-.34,0-.61.13-.8.38-.19.25-.29.59-.29,1.02v2.44h-1.58v-5.11h1.58v.95h.02c.25-.69.7-1.04,1.35-1.04.17,0,.3.02.39.06v1.45Z"/>
    <path class="cls-2" d="M65.1,56.39l-1.9,5.11h-1.79l-1.81-5.11h1.69l.89,3.15c.1.36.16.66.17.91h.02c.02-.24.08-.53.18-.88l.91-3.18h1.65Z"/>
    <path class="cls-2" d="M66.57,55.59c-.27,0-.48-.08-.65-.24-.17-.16-.25-.35-.25-.58s.08-.43.25-.58c.17-.15.39-.22.65-.22s.49.07.66.22c.17.15.25.34.25.58s-.08.44-.25.59c-.17.15-.39.23-.66.23ZM67.35,61.5h-1.58v-5.11h1.58v5.11Z"/>
    <path class="cls-2" d="M72.55,61.31c-.36.21-.87.31-1.54.31-.78,0-1.42-.24-1.9-.71-.49-.47-.73-1.09-.73-1.84,0-.87.26-1.55.78-2.05.52-.5,1.22-.75,2.09-.75.6,0,1.04.08,1.31.24v1.34c-.33-.25-.7-.37-1.1-.37-.45,0-.81.13-1.07.4-.26.26-.4.63-.4,1.09s.13.81.38,1.06c.25.26.6.39,1.04.39.39,0,.78-.12,1.15-.37v1.27Z"/>
    <path class="cls-2" d="M78.17,59.39h-3.33c.05.74.52,1.11,1.4,1.11.56,0,1.06-.13,1.48-.4v1.14c-.47.25-1.09.38-1.84.38-.82,0-1.46-.23-1.92-.69-.46-.46-.68-1.09-.68-1.91s.25-1.52.74-2.01c.49-.5,1.1-.74,1.81-.74s1.32.22,1.73.66.61,1.04.61,1.8v.66ZM76.7,58.43c0-.73-.3-1.1-.89-1.1-.25,0-.47.11-.66.31-.18.21-.3.47-.34.78h1.88Z"/>
    <path class="cls-2" d="M78.77,61.36v-1.28c.26.16.52.27.78.35.26.08.5.12.73.12.28,0,.5-.04.66-.12.16-.08.24-.19.24-.35,0-.1-.04-.18-.11-.25-.07-.07-.17-.12-.28-.17s-.24-.09-.38-.13-.27-.08-.39-.13c-.2-.08-.38-.16-.54-.25-.15-.09-.28-.19-.39-.31-.1-.12-.18-.25-.24-.4-.05-.15-.08-.33-.08-.54,0-.29.06-.53.19-.74s.29-.38.5-.51c.21-.13.45-.23.71-.29s.55-.09.84-.09c.23,0,.46.02.69.05.23.04.46.09.69.15v1.22c-.2-.12-.41-.2-.64-.26-.23-.06-.45-.09-.67-.09-.1,0-.2,0-.29.03-.09.02-.17.04-.24.08-.07.04-.12.08-.16.13s-.06.12-.06.19c0,.09.03.17.09.24.06.07.14.12.23.17.1.05.2.09.32.13s.24.08.35.12c.21.07.4.15.57.24.17.09.31.19.44.3.12.12.21.25.28.41.06.16.1.34.1.56,0,.3-.07.56-.2.78-.13.21-.31.39-.52.52s-.47.23-.75.29-.58.09-.89.09c-.56,0-1.08-.09-1.56-.26Z"/>
  </g>
</svg>